<svg xmlns="http://www.w3.org/2000/svg" aria-hidden="true" class="iconify iconify--uil" width="24" height="24" viewBox="0 0 24 24"><path fill="#0a008f" d="M10.07 20.5a1 1 0 0 0-1.18-.98c-1.31.24-2.96.28-3.4-.96a5.7 5.7 0 0 0-1.84-2.41 1.2 1.2 0 0 1-.17-.11 1 1 0 0 0-.93-.65 1 1 0 0 0-1 1c0 .81.8 1.34 1.14 1.51a4.44 4.44 0 0 1 .92 1.36c.37 1.02 1.43 2.58 4.47 2.38V22a1 1 0 0 0 2 0v-.31l-.01-1.19ZM20.74 5.38a5.39 5.39 0 0 0 .09-.42 6.28 6.28 0 0 0-.41-3.3 1 1 0 0 0-.62-.58c-.35-.12-1.67-.35-4.18 1.25a13.87 13.87 0 0 0-6.35 0C6.77.75 5.46.97 5.1 1.08a1 1 0 0 0-.63.58 6.3 6.3 0 0 0-.4 3.36l.08.35A6.27 6.27 0 0 0 2.89 9.2a8.42 8.42 0 0 0 .04.93c.34 4.6 3.34 5.98 5.43 6.45a4.6 4.6 0 0 0-.12.4 1 1 0 0 0 1.94.48 1.68 1.68 0 0 1 .47-.88 1 1 0 0 0-.55-1.74c-3.45-.4-4.95-1.8-5.18-4.9a6.61 6.61 0 0 1-.03-.74 4.26 4.26 0 0 1 .92-2.71 3.02 3.02 0 0 1 .2-.23 1 1 0 0 0 .18-1.03 3.39 3.39 0 0 1-.15-.55 4.1 4.1 0 0 1 .08-1.62 7.54 7.54 0 0 1 2.41 1.18 1 1 0 0 0 .83.14 11.78 11.78 0 0 1 6.17 0 1 1 0 0 0 .83-.14 7.57 7.57 0 0 1 2.4-1.2 4.04 4.04 0 0 1 .1 1.59 3.2 3.2 0 0 1-.17.6 1 1 0 0 0 .18 1.03l.23.27A4.12 4.12 0 0 1 20 9.2a7.04 7.04 0 0 1-.04.78c-.22 3.06-1.72 4.46-5.2 4.86a1 1 0 0 0-.54 1.75 1.63 1.63 0 0 1 .47.9 3.06 3.06 0 0 1 .09.82v2.34L14.77 22a1 1 0 1 0 2 0l.01-1.34v-2.35a4.88 4.88 0 0 0-.15-1.3 4.26 4.26 0 0 0-.12-.42 6.51 6.51 0 0 0 5.44-6.43A8.7 8.7 0 0 0 22 9.2a6.13 6.13 0 0 0-1.26-3.82Z"/></svg>