<svg xmlns="http://www.w3.org/2000/svg" aria-hidden="true" class="iconify iconify--akar-icons" width="32" height="32" viewBox="0 0 24 24"><path fill="#0a008f" fill-rule="evenodd" d="M1 2.84A1.84 1.84 0 0 1 2.84 1h18.32A1.84 1.84 0 0 1 23 2.84v18.32A1.84 1.84 0 0 1 21.16 23H2.84A1.84 1.84 0 0 1 1 21.16V2.84Zm8.7 6.55h2.99v1.5c.43-.87 1.53-1.64 3.18-1.64 3.17 0 3.92 1.71 3.92 4.86v5.82h-3.2v-5.1c0-1.8-.44-2.8-1.53-2.8-1.51 0-2.14 1.08-2.14 2.8v5.1H9.7V9.39Zm-5.5 10.4h3.22V9.25H4.2v10.54ZM7.88 5.81a2.06 2.06 0 1 1-4.12 0 2.06 2.06 0 0 1 4.13 0Z" clip-rule="evenodd"/></svg>